<svg width="855" height="421" viewBox="0 0 855 421" xmlns="http://www.w3.org/2000/svg">
<path d="M61.8717 128.522C67.1826 120.379 73.8212 114.006 81.7875 109.403C89.7538 104.623 98.6053 102.233 108.342 102.233V150.297H95.8613C84.5315 150.297 76.0341 152.775 70.3691 157.732C64.7042 162.512 61.8717 171.009 61.8717 183.224V252H16.4637V103.827H61.8717V128.522ZM152.883 88.425C144.916 88.425 138.366 86.1236 133.232 81.5208C128.276 76.741 125.797 70.8991 125.797 63.995C125.797 56.9138 128.276 51.0718 133.232 46.469C138.366 41.6893 144.916 39.2994 152.883 39.2994C160.672 39.2994 167.045 41.6893 172.002 46.469C177.136 51.0718 179.703 56.9138 179.703 63.995C179.703 70.8991 177.136 76.741 172.002 81.5208C167.045 86.1236 160.672 88.425 152.883 88.425ZM175.454 103.827V252H130.046V103.827H175.454ZM275.809 254.124C261.292 254.124 248.192 251.026 236.508 244.83C225.001 238.634 215.884 229.783 209.157 218.276C202.607 206.769 199.332 193.315 199.332 177.913C199.332 162.689 202.696 149.323 209.423 137.816C216.15 126.132 225.355 117.192 237.039 110.996C248.723 104.8 261.823 101.702 276.34 101.702C290.856 101.702 303.956 104.8 315.64 110.996C327.324 117.192 336.53 126.132 343.257 137.816C349.984 149.323 353.348 162.689 353.348 177.913C353.348 193.138 349.896 206.592 342.991 218.276C336.264 229.783 326.97 238.634 315.109 244.83C303.425 251.026 290.325 254.124 275.809 254.124ZM275.809 214.824C284.483 214.824 291.83 211.637 297.849 205.264C304.045 198.891 307.143 189.774 307.143 177.913C307.143 166.052 304.133 156.935 298.114 150.562C292.273 144.189 285.014 141.003 276.34 141.003C267.488 141.003 260.142 144.189 254.3 150.562C248.458 156.758 245.537 165.875 245.537 177.913C245.537 189.774 248.369 198.891 254.034 205.264C259.876 211.637 267.134 214.824 275.809 214.824ZM451.79 141.534H427.36V252H381.952V141.534H365.488V103.827H381.952V99.5778C381.952 81.3438 387.174 67.5355 397.619 58.153C408.063 48.5934 423.377 43.8136 443.558 43.8136C446.921 43.8136 449.4 43.9021 450.993 44.0791V82.583C442.319 82.0519 436.211 83.2911 432.671 86.3006C429.13 89.3101 427.36 94.7095 427.36 102.499V103.827H451.79V141.534ZM518.535 55.4975V252H473.127V55.4975H518.535ZM691.117 175.523C691.117 179.772 690.852 184.198 690.321 188.801H587.555C588.263 198.006 591.184 205.087 596.318 210.044C601.629 214.824 608.091 217.214 615.703 217.214C627.033 217.214 634.911 212.434 639.336 202.874H687.665C685.187 212.611 680.673 221.374 674.123 229.163C667.749 236.953 659.695 243.06 649.958 247.486C640.221 251.911 629.334 254.124 617.296 254.124C602.78 254.124 589.857 251.026 578.527 244.83C567.197 238.634 558.345 229.783 551.972 218.276C545.599 206.769 542.413 193.315 542.413 177.913C542.413 162.512 545.511 149.057 551.707 137.551C558.08 126.044 566.931 117.192 578.261 110.996C589.591 104.8 602.603 101.702 617.296 101.702C631.636 101.702 644.382 104.712 655.534 110.731C666.687 116.75 675.362 125.336 681.558 136.488C687.931 147.641 691.117 160.653 691.117 175.523ZM644.647 163.574C644.647 155.785 641.992 149.589 636.681 144.986C631.37 140.383 624.731 138.082 616.765 138.082C609.153 138.082 602.691 140.295 597.38 144.72C592.247 149.146 589.06 155.431 587.821 163.574H644.647ZM802.702 252L774.289 210.841L750.39 252H701.264L750.124 176.32L699.936 103.827H750.921L779.334 144.72L803.233 103.827H852.358L802.702 178.444L853.686 252H802.702Z"/>
<path d="M90.043 331.43C90.043 335.215 89.9379 338.054 89.7276 339.946H15.7694C15.9796 347.62 17.6617 354.086 20.8155 359.342C23.9694 364.599 28.122 368.541 33.2733 371.169C38.4247 373.797 44.0491 375.112 50.1465 375.112C58.5569 375.112 65.6005 373.061 71.2775 368.961C76.9544 364.756 80.5288 359.079 82.0006 351.931H89.4122C87.7302 360.656 83.4199 367.752 76.4814 373.219C69.5428 378.581 60.7646 381.262 50.1465 381.262C42.1567 381.262 35.008 379.474 28.7002 375.9C22.3925 372.326 17.4514 367.227 13.877 360.604C10.3026 353.875 8.51545 346.043 8.51545 337.107C8.51545 328.171 10.2501 320.392 13.7193 313.769C17.2937 307.146 22.2348 302.099 28.5425 298.63C34.8503 295.056 42.0516 293.269 50.1465 293.269C58.3466 293.269 65.4428 295.056 71.4352 298.63C77.5327 302.099 82.1583 306.778 85.3122 312.665C88.4661 318.447 90.043 324.702 90.043 331.43ZM82.9468 334.111C83.2622 326.542 81.8955 320.129 78.8468 314.873C75.9032 309.616 71.8557 305.726 66.7044 303.203C61.553 300.575 55.9812 299.261 49.9888 299.261C43.9965 299.261 38.4247 300.575 33.2733 303.203C28.2271 305.726 24.0745 309.616 20.8155 314.873C17.6617 320.129 15.9796 326.542 15.7694 334.111H82.9468ZM137.824 300.522V357.134C137.824 363.442 138.981 367.805 141.293 370.223C143.606 372.536 147.706 373.692 153.594 373.692H163.213V380H152.49C145.025 380 139.506 378.265 135.932 374.796C132.463 371.222 130.728 365.335 130.728 357.134V300.522H117.797V294.372H130.728V272.611H137.824V294.372H163.213V300.522H137.824ZM201.324 275.291C199.642 275.291 198.223 274.766 197.066 273.715C195.91 272.558 195.332 271.034 195.332 269.141C195.332 267.354 195.91 265.882 197.066 264.726C198.223 263.57 199.642 262.991 201.324 262.991C203.006 262.991 204.425 263.57 205.582 264.726C206.738 265.882 207.316 267.354 207.316 269.141C207.316 271.034 206.738 272.558 205.582 273.715C204.425 274.766 203.006 275.291 201.324 275.291ZM204.793 294.372V380H197.697V294.372H204.793ZM242.161 337.107C242.161 328.277 243.895 320.55 247.364 313.926C250.939 307.303 255.827 302.205 262.03 298.63C268.338 295.056 275.486 293.269 283.476 293.269C292.517 293.269 300.192 295.476 306.5 299.892C312.912 304.307 317.328 309.932 319.746 316.765V294.372H326.842V420.37H319.746V357.608C317.328 364.441 312.912 370.118 306.5 374.638C300.087 379.054 292.36 381.262 283.319 381.262C275.434 381.262 268.338 379.474 262.03 375.9C255.827 372.22 250.939 367.069 247.364 360.446C243.895 353.718 242.161 345.938 242.161 337.107ZM319.746 337.107C319.746 329.643 318.169 323.073 315.015 317.396C311.966 311.614 307.761 307.198 302.4 304.149C297.038 300.996 291.046 299.419 284.422 299.419C277.484 299.419 271.386 300.943 266.13 303.992C260.874 306.935 256.774 311.246 253.83 316.923C250.886 322.6 249.414 329.328 249.414 337.107C249.414 344.887 250.886 351.615 253.83 357.292C256.774 362.969 260.874 367.332 266.13 370.381C271.492 373.429 277.589 374.954 284.422 374.954C291.046 374.954 297.038 373.429 302.4 370.381C307.866 367.227 312.124 362.811 315.173 357.134C318.221 351.352 319.746 344.677 319.746 337.107ZM440.831 294.372V380H433.735V361.392C431.317 367.91 427.269 372.904 421.592 376.373C416.021 379.737 409.608 381.419 402.354 381.419C392.156 381.419 383.799 378.318 377.281 372.115C370.868 365.808 367.661 356.504 367.661 344.204V294.372H374.6V343.73C374.6 353.928 377.175 361.76 382.327 367.227C387.478 372.588 394.469 375.269 403.3 375.269C412.551 375.269 419.91 372.326 425.377 366.438C430.949 360.551 433.735 351.825 433.735 340.261V294.372H440.831ZM559.582 331.43C559.582 335.215 559.477 338.054 559.266 339.946H485.308C485.518 347.62 487.2 354.086 490.354 359.342C493.508 364.599 497.661 368.541 502.812 371.169C507.963 373.797 513.588 375.112 519.685 375.112C528.096 375.112 535.139 373.061 540.816 368.961C546.493 364.756 550.067 359.079 551.539 351.931H558.951C557.269 360.656 552.959 367.752 546.02 373.219C539.081 378.581 530.303 381.262 519.685 381.262C511.695 381.262 504.547 379.474 498.239 375.9C491.931 372.326 486.99 367.227 483.416 360.604C479.841 353.875 478.054 346.043 478.054 337.107C478.054 328.171 479.789 320.392 483.258 313.769C486.832 307.146 491.773 302.099 498.081 298.63C504.389 295.056 511.59 293.269 519.685 293.269C527.885 293.269 534.981 295.056 540.974 298.63C547.071 302.099 551.697 306.778 554.851 312.665C558.005 318.447 559.582 324.702 559.582 331.43ZM552.485 334.111C552.801 326.542 551.434 320.129 548.385 314.873C545.442 309.616 541.394 305.726 536.243 303.203C531.092 300.575 525.52 299.261 519.527 299.261C513.535 299.261 507.963 300.575 502.812 303.203C497.766 305.726 493.613 309.616 490.354 314.873C487.2 320.129 485.518 326.542 485.308 334.111H552.485ZM607.363 300.522V357.134C607.363 363.442 608.519 367.805 610.832 370.223C613.145 372.536 617.245 373.692 623.132 373.692H632.751V380H622.028C614.564 380 609.045 378.265 605.47 374.796C602.001 371.222 600.267 365.335 600.267 357.134V300.522H587.336V294.372H600.267V272.611H607.363V294.372H632.751V300.522H607.363ZM662.82 337.107C662.82 328.277 664.555 320.55 668.024 313.926C671.599 307.303 676.487 302.205 682.69 298.63C688.998 295.056 696.146 293.269 704.136 293.269C713.177 293.269 720.852 295.476 727.159 299.892C733.467 304.307 737.883 309.932 740.406 316.765V294.372H747.502V380H740.406V357.45C737.883 364.388 733.415 370.118 727.002 374.638C720.694 379.054 713.072 381.262 704.136 381.262C696.146 381.262 688.998 379.474 682.69 375.9C676.487 372.22 671.599 367.069 668.024 360.446C664.555 353.718 662.82 345.938 662.82 337.107ZM740.406 337.107C740.406 329.643 738.829 323.073 735.675 317.396C732.626 311.614 728.421 307.198 723.059 304.149C717.698 300.996 711.705 299.419 705.082 299.419C698.144 299.419 692.046 300.943 686.79 303.992C681.533 306.935 677.433 311.246 674.49 316.923C671.546 322.6 670.074 329.328 670.074 337.107C670.074 344.887 671.546 351.615 674.49 357.292C677.433 362.969 681.533 367.332 686.79 370.381C692.151 373.429 698.249 374.954 705.082 374.954C711.705 374.954 717.698 373.429 723.059 370.381C728.526 367.227 732.784 362.811 735.832 357.134C738.881 351.352 740.406 344.677 740.406 337.107ZM817.652 381.262C808.085 381.262 800.253 379.159 794.156 374.954C788.163 370.749 784.799 364.756 784.063 356.977H791.317C791.843 362.549 794.366 366.964 798.887 370.223C803.512 373.482 809.767 375.112 817.652 375.112C824.17 375.112 829.321 373.482 833.106 370.223C836.996 366.859 838.941 362.759 838.941 357.923C838.941 354.559 837.889 351.825 835.787 349.723C833.789 347.515 831.266 345.833 828.218 344.677C825.169 343.52 821.016 342.259 815.76 340.892C809.452 339.21 804.353 337.58 800.463 336.004C796.574 334.321 793.262 331.851 790.529 328.592C787.795 325.333 786.429 320.97 786.429 315.503C786.429 311.508 787.638 307.829 790.056 304.465C792.474 300.996 795.838 298.262 800.148 296.265C804.458 294.267 809.347 293.269 814.814 293.269C823.75 293.269 830.951 295.529 836.418 300.049C841.989 304.465 844.986 310.615 845.406 318.5H838.31C837.995 312.823 835.787 308.197 831.687 304.622C827.587 301.048 821.91 299.261 814.656 299.261C808.558 299.261 803.512 300.838 799.517 303.992C795.522 307.146 793.525 310.983 793.525 315.503C793.525 319.498 794.629 322.757 796.837 325.28C799.149 327.698 801.935 329.591 805.194 330.957C808.558 332.219 812.974 333.586 818.441 335.057C824.433 336.634 829.216 338.211 832.791 339.788C836.47 341.26 839.571 343.468 842.095 346.411C844.618 349.25 845.879 353.087 845.879 357.923C845.879 362.338 844.67 366.333 842.252 369.908C839.834 373.482 836.47 376.268 832.16 378.265C827.85 380.263 823.014 381.262 817.652 381.262Z"/>
</svg>
